# xmcd CD database file
#
# Track frame offsets:
#	150
#	19215
#	40825
#	61117
#	79612
#	82487
#	107712
#	129757
#	153767
#	176892
#	195210
#	219705
#
# Disc length: 3372 seconds
#
# Revision: 2
# Processed by: cddbd v1.4PL0 Copyright (c) Steve Scherf et al.
# Submitted via: CDex 1.40Beta8
#
DISCID=960d2a0c
DTITLE=A Few Good Men - Take A Dip
DYEAR=1996
DGENRE=R&B
TTITLE0=A Few Good Men - Tonite
TTITLE1=A Few Good Men - Walk You Through
TTITLE2=A Few Good Men - Let's Take A Dip
TTITLE3=A Few Good Men - All Of My Love
TTITLE4=A Few Good Men - Please Baby Don't Cry (Interlude)
TTITLE5=A Few Good Men - Have I Never
TTITLE6=A Few Good Men - A Thang For You
TTITLE7=A Few Good Men - Young Girl
TTITLE8=A Few Good Men - Don't Cry (Behind My Back)
TTITLE9=A Few Good Men - Sexy Day
TTITLE10=A Few Good Men - A Good Man
TTITLE11=A Few Good Men - 1-900-G-MAN (How I Say I Love You)
EXTD=YEAR: 1996 ID3G: 14
EXTT0=
EXTT1=
EXTT2=
EXTT3=
EXTT4=
EXTT5=
EXTT6=
EXTT7=
EXTT8=
EXTT9=
EXTT10=
EXTT11=
PLAYORDER=
